<?xml version="1.0" standalone="no"?>
<!DOCTYPE svg PUBLIC "-//W3C//DTD SVG 20010904//EN"
 "http://www.w3.org/TR/2001/REC-SVG-20010904/DTD/svg10.dtd">
<svg version="1.0" xmlns="http://www.w3.org/2000/svg"
 width="225.000000pt" height="225.000000pt" viewBox="0 0 225.000000 225.000000"
 preserveAspectRatio="xMidYMid meet">

<g transform="translate(0.000000,225.000000) scale(0.100000,-0.100000)"
fill="#000000" stroke="none">
<path d="M356 1741 c-16 -11 -37 -33 -48 -49 -18 -28 -18 -56 -16 -580 l3
-550 25 -27 c54 -57 18 -55 807 -55 826 0 777 -5 820 80 23 44 23 45 23 565 0
580 2 565 -69 612 l-34 23 -741 0 c-712 0 -742 -1 -770 -19z m1495 -87 c11
-13 -30 -58 -302 -331 -173 -173 -328 -321 -346 -329 -46 -20 -120 -17 -167 6
-26 12 -154 133 -350 329 -268 268 -308 312 -297 325 12 14 92 16 731 16 639
0 719 -2 731 -16z m-1101 -529 c0 -6 -83 -93 -185 -195 l-185 -185 0 380 0
380 185 -185 c102 -102 185 -189 185 -195z m1120 -2 l0 -378 -190 190 -190
190 187 187 c103 104 189 188 190 188 2 0 3 -170 3 -377z m-836 -227 c114 -36
207 -8 321 96 l67 61 221 -221 c191 -191 219 -223 208 -236 -12 -14 -92 -16
-731 -16 -639 0 -719 2 -731 16 -11 13 18 46 211 239 l224 224 76 -72 c61 -59
87 -76 134 -91z"/>
</g>
</svg>
