<?xml version="1.0" standalone="no"?>
<!DOCTYPE svg PUBLIC "-//W3C//DTD SVG 20010904//EN"
 "http://www.w3.org/TR/2001/REC-SVG-20010904/DTD/svg10.dtd">
<svg version="1.0" xmlns="http://www.w3.org/2000/svg"
 width="298.000000pt" height="169.000000pt" viewBox="0 0 298.000000 169.000000"
 preserveAspectRatio="xMidYMid meet">

<g transform="translate(0.000000,169.000000) scale(0.100000,-0.100000)"
fill="#000000" stroke="none">
<path d="M982 1640 c-270 -195 -331 -471 -177 -797 84 -178 213 -352 385 -516
222 -213 409 -307 616 -308 100 -1 150 10 230 48 54 26 189 134 218 175 20 28
21 80 1 117 -22 44 -181 186 -245 220 -104 55 -160 41 -275 -69 -85 -82 -117
-87 -213 -39 -103 51 -296 259 -362 388 -56 111 -49 177 23 232 190 145 197
211 51 431 -36 54 -80 109 -98 123 -47 36 -101 34 -154 -5z"/>
</g>
</svg>
