<?xml version="1.0" standalone="no"?>
<!DOCTYPE svg PUBLIC "-//W3C//DTD SVG 20010904//EN"
 "http://www.w3.org/TR/2001/REC-SVG-20010904/DTD/svg10.dtd">
<svg version="1.0" xmlns="http://www.w3.org/2000/svg"
 width="225.000000pt" height="225.000000pt" viewBox="0 0 225.000000 225.000000"
 preserveAspectRatio="xMidYMid meet">

<g transform="translate(0.000000,225.000000) scale(0.100000,-0.100000)"
fill="#000000" stroke="none">
<path d="M982 1936 c-94 -24 -200 -85 -272 -157 -151 -150 -205 -361 -149
-572 49 -179 245 -514 460 -783 l102 -128 40 45 c67 75 231 299 306 416 86
136 170 300 208 408 25 71 28 93 28 205 0 105 -4 135 -23 184 -64 173 -199
308 -365 366 -78 28 -255 36 -335 16z m351 -108 c140 -67 244 -191 282 -333
44 -170 -5 -343 -181 -636 -81 -134 -292 -424 -309 -423 -33 1 -320 426 -404
597 -97 198 -121 326 -86 462 43 165 178 305 350 361 26 9 80 13 155 11 110
-2 119 -4 193 -39z"/>
<path d="M1070 1581 c-76 -24 -118 -61 -149 -131 -39 -85 -21 -170 49 -240 93
-93 217 -93 310 0 70 70 88 155 49 240 -25 56 -53 86 -102 112 -44 22 -120 31
-157 19z m92 -81 c45 -13 95 -68 104 -114 10 -54 -28 -123 -80 -147 -23 -10
-50 -19 -61 -19 -11 0 -38 9 -61 19 -52 24 -90 93 -80 147 11 58 70 112 136
123 3 1 22 -4 42 -9z"/>
</g>
</svg>
