<?xml version="1.0" standalone="no"?>
<!DOCTYPE svg PUBLIC "-//W3C//DTD SVG 20010904//EN"
 "http://www.w3.org/TR/2001/REC-SVG-20010904/DTD/svg10.dtd">
<svg version="1.0" xmlns="http://www.w3.org/2000/svg"
 width="225.000000pt" height="225.000000pt" viewBox="0 0 225.000000 225.000000"
 preserveAspectRatio="xMidYMid meet">

<g transform="translate(0.000000,225.000000) scale(0.100000,-0.100000)"
fill="#000000" stroke="none">
<path d="M557 1760 c-31 -24 -45 -81 -28 -116 6 -13 25 -33 43 -44 32 -19 51
-20 554 -20 l521 0 33 23 c58 38 64 104 15 153 l-24 24 -544 0 c-533 0 -545 0
-570 -20z"/>
<path d="M571 1266 c-28 -16 -50 -52 -51 -84 0 -33 28 -78 57 -91 16 -8 194
-11 554 -11 l531 0 34 34 c19 19 34 44 34 56 0 35 -29 86 -56 99 -39 17 -1071
15 -1103 -3z"/>
<path d="M590 773 c-30 -11 -60 -47 -66 -78 -7 -37 16 -89 45 -105 13 -6 207
-10 558 -10 495 0 540 2 559 18 52 41 55 109 8 153 l-26 24 -531 2 c-293 1
-539 -1 -547 -4z"/>
</g>
</svg>
